<mxfile host="app.diagrams.net" modified="2024-03-13T11:46:24.510Z" agent="Mozilla/5.0 (Windows NT 10.0; Win64; x64; rv:121.0) Gecko/20100101 Firefox/121.0" etag="RIByiKDVVwD2snoG12zs" version="24.0.5" type="device">
  <diagram name="Página-1" id="eovJv75NKRtc64PzX9b3">
    <mxGraphModel dx="1434" dy="774" grid="1" gridSize="10" guides="1" tooltips="1" connect="1" arrows="1" fold="1" page="1" pageScale="1" pageWidth="827" pageHeight="1169" math="0" shadow="0">
      <root>
        <mxCell id="0" />
        <mxCell id="1" parent="0" />
        <mxCell id="81EFd3_1n7NqefcnNnp6-1" value="" style="rounded=0;whiteSpace=wrap;html=1;" vertex="1" parent="1">
          <mxGeometry x="40" y="40" width="910" height="610" as="geometry" />
        </mxCell>
        <mxCell id="81EFd3_1n7NqefcnNnp6-5" value="Header" style="rounded=0;whiteSpace=wrap;html=1;fillColor=#dae8fc;strokeColor=#6c8ebf;" vertex="1" parent="1">
          <mxGeometry x="40" y="40" width="360" height="510" as="geometry" />
        </mxCell>
        <mxCell id="81EFd3_1n7NqefcnNnp6-8" value="foto" style="ellipse;whiteSpace=wrap;html=1;aspect=fixed;fillColor=#f5f5f5;gradientColor=#b3b3b3;strokeColor=#666666;" vertex="1" parent="1">
          <mxGeometry x="135" y="60" width="170" height="170" as="geometry" />
        </mxCell>
        <mxCell id="81EFd3_1n7NqefcnNnp6-10" value="Descrição" style="rounded=1;whiteSpace=wrap;html=1;fillColor=#f5f5f5;gradientColor=#b3b3b3;strokeColor=#666666;" vertex="1" parent="1">
          <mxGeometry x="50" y="330" width="340" height="210" as="geometry" />
        </mxCell>
        <mxCell id="81EFd3_1n7NqefcnNnp6-11" value="Menu" style="rounded=0;whiteSpace=wrap;html=1;fillColor=#f5f5f5;fontColor=#333333;strokeColor=#666666;" vertex="1" parent="1">
          <mxGeometry x="40" y="550" width="360" height="100" as="geometry" />
        </mxCell>
        <mxCell id="81EFd3_1n7NqefcnNnp6-14" value="Descrição" style="rounded=0;whiteSpace=wrap;html=1;fillColor=#d5e8d4;strokeColor=#82b366;" vertex="1" parent="1">
          <mxGeometry x="400" y="40" width="550" height="610" as="geometry" />
        </mxCell>
        <mxCell id="81EFd3_1n7NqefcnNnp6-15" value="Habilidades" style="rounded=1;whiteSpace=wrap;html=1;fillColor=#b0e3e6;strokeColor=#0e8088;" vertex="1" parent="1">
          <mxGeometry x="430" y="60" width="236" height="260" as="geometry" />
        </mxCell>
        <mxCell id="81EFd3_1n7NqefcnNnp6-16" value="Experiência" style="rounded=1;whiteSpace=wrap;html=1;fillColor=#b0e3e6;strokeColor=#0e8088;" vertex="1" parent="1">
          <mxGeometry x="690" y="60" width="236" height="260" as="geometry" />
        </mxCell>
        <mxCell id="81EFd3_1n7NqefcnNnp6-17" value="Redes Sociais" style="rounded=1;whiteSpace=wrap;html=1;fillColor=#b0e3e6;strokeColor=#0e8088;" vertex="1" parent="1">
          <mxGeometry x="430" y="370" width="230" height="250" as="geometry" />
        </mxCell>
        <mxCell id="81EFd3_1n7NqefcnNnp6-18" value="Entre em contato comigo" style="rounded=1;whiteSpace=wrap;html=1;fillColor=#b0e3e6;strokeColor=#0e8088;" vertex="1" parent="1">
          <mxGeometry x="690" y="370" width="230" height="250" as="geometry" />
        </mxCell>
      </root>
    </mxGraphModel>
  </diagram>
</mxfile>
